<svg width="116" height="94" viewBox="0 0 116 94" fill="none" xmlns="http://www.w3.org/2000/svg">
<path d="M115 47.9668C115 72.6348 89.7081 93 58 93C26.2919 93 1 72.6348 1 47.9668C1 38.998 3.25614 31.7483 8.07908 26.0851C12.8948 20.4304 20.3646 16.2456 31.0177 13.5831C34.1458 13.6116 37.8614 14.7429 42.0065 16.005C42.2528 16.08 42.5007 16.1554 42.75 16.2311C47.1645 17.5718 51.9771 18.9661 56.6449 18.9661C58.7338 18.9661 61.3585 18.463 64.1556 17.782C66.0675 17.3164 68.1127 16.7537 70.1708 16.1875C71.1321 15.923 72.0962 15.6578 73.0508 15.4013C76.0721 14.5895 79.0184 13.8598 81.6213 13.469C84.2549 13.0736 86.3915 13.0502 87.8628 13.5327C98.3143 16.9602 105.046 20.9246 109.191 26.2752C113.324 31.6099 115 38.4732 115 47.9668Z" fill="#EB3F33" stroke="black" stroke-width="2"/>
<path d="M57.194 17.3352H55.6792C55.687 17.1227 55.6975 16.8805 55.7118 16.6128C55.7691 15.5409 55.886 14.0669 56.1239 12.4566C56.6095 9.16972 57.5666 5.56404 59.3475 3.51922C61.0366 1.57969 63.9234 1.00479 66.6356 1.00003C67.9595 0.997707 69.171 1.1316 70.0535 1.26703C70.2934 1.30384 70.5081 1.34062 70.6931 1.37456V4.65371C70.2785 4.39429 69.7934 4.1438 69.2427 3.94537C67.1132 3.17811 64.2119 3.26725 60.9296 6.03851C57.6449 8.81173 56.8016 11.994 56.8142 14.4904C56.8199 15.6224 57.0004 16.6037 57.194 17.3352Z" fill="#60D394" stroke="black" stroke-width="2"/>
<path d="M37.9497 21.4017C43.0059 19.5411 48.0446 18.0704 48.0446 18.0704L65.777 17.8062C65.777 17.8062 78.1377 18.3768 79.9274 22.8094C81.7171 27.2419 81.2378 35.8929 81.2378 35.8929C81.2378 35.8929 81.5182 29.6558 76.3988 24.8773C71.2794 20.0989 60.8794 22.1706 60.8794 22.1706C60.8794 22.1706 65.5036 23.8873 65.3774 26.694L64.8376 38.7004C64.8376 38.7004 64.125 32.43 61.1442 28.3479C58.1633 24.2658 52.9353 21.9042 52.9353 21.9042C52.9353 21.9042 47.8448 22.5143 39.3161 25.1954C30.7873 27.8764 27.3797 31.2758 27.3797 31.2758C27.3797 31.2758 32.8934 23.2622 37.9497 21.4017Z" fill="#AAF683" stroke="black" stroke-width="2"/>
</svg>
